<svg width="32" height="32" viewBox="0 0 100 100" fill="none" xmlns="http://www.w3.org/2000/svg">
  <!-- Silhouette of a man in a suit based on your provided image -->
  <path d="M50 12C46 12 43 14 41 17C39 20 39.5 24 40.5 26.5C38 25.5 35.5 26.5 34.5 29C33.5 31.5 34 34.5 35 36C32 38.5 30.5 42 30.5 46C30.5 50 33 54 37 57L34 88H66L63 57C67 54 69.5 50 69.5 46C69.5 42 68 38.5 65 36C66 34.5 66.5 31.5 65.5 29C64.5 26.5 62 25.5 59.5 26.5C60.5 24 61 20 59 17C57 14 54 12 50 12Z" fill="#020617"/>
  
  <!-- Shirt and Tie Area -->
  <path d="M50 48L42 58H58L50 48Z" fill="white"/>
  
  <!-- Tie Detail -->
  <path d="M50 54V62M50 54L48 57M50 54L52 57" stroke="#020617" stroke-width="1.5" stroke-linecap="round"/>
  
  <!-- Subtle lapel lines -->
  <path d="M42 58L38 65M58 58L62 65" stroke="white" stroke-width="0.5" opacity="0.3"/>
</svg>
